<svg width="25" height="75" viewBox="0 0 25 75" fill="none" xmlns="http://www.w3.org/2000/svg">
<path d="M22.8512 3.04452C22.8141 3.04315 22.77 3.04315 22.6818 3.04315L22.3534 3.04315C22.2652 3.04315 22.2211 3.04315 22.1841 3.04452C21.0786 3.08902 20.1917 4.09541 20.1521 5.34964C20.1508 5.39209 20.1508 5.44206 20.1508 5.5427C20.1508 5.64266 20.1508 5.69264 20.1521 5.7344C20.1917 6.98931 21.0786 7.99638 22.1841 8.0402C22.2211 8.04225 22.2652 8.04225 22.3534 8.04225H22.6818C22.77 8.04225 22.8141 8.04225 22.8512 8.0402C23.9566 7.99638 24.8441 6.98931 24.8831 5.73508C24.8844 5.69263 24.8844 5.64266 24.8844 5.5427C24.8844 5.44206 24.8844 5.39209 24.8831 5.34964C24.8441 4.09541 23.9566 3.08902 22.8512 3.04452ZM15.0122 35.7906L5.95081 35.7906C4.37509 35.7906 3.66518 36.4424 3.66518 38.5003C3.66518 39.3623 3.88882 40.2098 4.05751 40.7171H0.405745C0.135456 39.8545 -5.72205e-06 38.5359 -5.72205e-06 37.457C-5.72205e-06 33.1315 2.02237 31.0811 5.51822 31.0811L23.8026 31.0811V35.7906H17.9873L17.9873 40.7171H15.0115V35.7906H15.0122Z" fill="white"/>
<path fill-rule="evenodd" clip-rule="evenodd" d="M9.50417 42.3109C14.8716 42.3109 18.5278 45.9374 18.5278 51.7409C18.5278 57.9415 14.3055 61.0148 8.18276 60.6903L8.18276 47.1492C5.04154 47.3943 3.44856 48.9737 3.44856 51.771C3.44856 54.1357 4.5131 55.3906 6.01853 55.9315L6.01853 60.5321C2.32779 59.638 -1.14441e-05 56.5066 -1.14441e-05 51.7416C-1.14441e-05 45.858 3.62172 42.3109 9.05816 42.3109H9.5048H9.50417ZM15.0103 51.7053C15.0103 49.1243 13.7208 47.5818 11.1572 47.1492L11.2249 55.9602C13.6166 55.7069 15.0103 54.3226 15.0103 51.7053Z" fill="white"/>
<path d="M18.5278 21.6265C18.5278 18.5977 16.8575 16.7287 15.2147 15.7935L17.9873 15.5765V11.0854L0.541204 11.0854V15.7942L10.3463 15.7942C13.2403 15.7942 15.0115 17.4387 15.0115 19.9238C15.0115 22.409 13.4767 23.3291 10.8198 23.3291H0.541204V28.038H11.7662C15.6607 28.0455 18.5278 26.234 18.5278 21.6265ZM15.2147 68.0308C17.3988 69.2261 18.5278 71.6675 18.5278 73.5009C18.5278 73.8268 18.4876 74.3409 18.4269 74.6237H15.0115C15.0546 74.1687 15.0772 73.7117 15.0793 73.2544C15.0793 69.9073 13.1994 68.0308 10.0077 68.0308H0.541204L0.541204 63.3206L17.9873 63.3206L17.9873 67.8849L15.2147 68.0301V68.0308ZM17.9873 0L15.0154 0V3.18622L0.541204 3.18622L0.541204 7.8971L17.9873 7.8971L17.9873 0Z" fill="white"/>
</svg>
