<svg width="29" height="47" viewBox="0 0 29 47" fill="none" xmlns="http://www.w3.org/2000/svg">
<path fill-rule="evenodd" clip-rule="evenodd" d="M25.2524 17.6666V30.0439H3.0236V17.6666H25.2524Z" fill="#2271CE"/>
<path fill-rule="evenodd" clip-rule="evenodd" d="M14.1447 18.4601C18.654 18.4601 22.6739 20.5759 25.2657 23.8553C27.2228 21.3693 28.2939 18.2882 28.2939 15.1145C28.2939 7.31262 21.9598 0.978524 14.1579 0.978524C6.3428 0.978524 0.0219231 7.31262 0.0219231 15.1145C0.0219231 18.2882 1.07981 21.3693 3.05012 23.8553C5.6155 20.5627 9.63547 18.4601 14.1447 18.4601Z" fill="#005EB6"/>
<path fill-rule="evenodd" clip-rule="evenodd" d="M14.1447 46.7321C6.32953 46.7321 0.00865746 40.398 0.00865746 32.5961C0.00865746 29.4224 1.06655 26.3413 3.03686 23.8553C5.62868 27.148 9.64865 29.2505 14.1579 29.2505C18.6671 29.2505 22.6871 27.1348 25.2789 23.8553C27.236 26.3413 28.3071 29.4224 28.3071 32.5961C28.2807 40.398 21.9466 46.7321 14.1447 46.7321Z" fill="#0099DF"/>
</svg>
